<svg xmlns="http://www.w3.org/2000/svg" width="64.202" height="64.174" viewBox="0 0 64.202 64.174">
  <g id="_923137" data-name="923137" transform="translate(0 -0.11)">
    <g id="Grupo_23" data-name="Grupo 23" transform="translate(0 0.11)">
      <path id="Trazado_36" data-name="Trazado 36" d="M64.174,21.643V7.24A7.138,7.138,0,0,0,57.044.11H7.13A7.138,7.138,0,0,0,0,7.24V57.154a7.138,7.138,0,0,0,7.13,7.13H57.044a7.138,7.138,0,0,0,7.13-7.13V22.289a1.89,1.89,0,0,0,0-.646ZM43.692,3.87H57.044a3.374,3.374,0,0,1,3.37,3.37V20.086H43.692ZM19.478,60.524H7.13a3.374,3.374,0,0,1-3.37-3.37V44.3H19.478Zm0-19.984H3.76V23.846H19.478Zm0-20.454H3.76V7.24A3.374,3.374,0,0,1,7.13,3.87H19.478ZM39.932,60.524H23.238V44.3H39.932Zm0-19.984H23.238V23.846H39.932Zm0-20.454H23.238V3.87H39.932ZM60.414,57.154a3.374,3.374,0,0,1-3.37,3.37H43.692V44.3H60.414Zm0-16.614H43.692V23.846H60.414Z" transform="translate(0 -0.11)" fill="#f9004d"/>
    </g>
  </g>
</svg>
