<svg width="17" height="17" viewBox="0 0 17 17" fill="none" xmlns="http://www.w3.org/2000/svg">
<path d="M11.083 10.3443C8.68297 9.07616 5.31499 9.63722 5.17299 9.66122C5.01127 9.70126 4.87089 9.80143 4.78042 9.94134C4.68995 10.0812 4.65618 10.2504 4.68599 10.4143C4.69147 10.4946 4.71307 10.5731 4.7495 10.6449C4.78593 10.7167 4.83644 10.7805 4.89803 10.8324C4.95961 10.8843 5.03102 10.9232 5.10798 10.9469C5.18494 10.9706 5.26588 10.9786 5.34599 10.9704C5.37699 10.9654 8.50497 10.4423 10.596 11.5464C10.6708 11.5863 10.7542 11.6073 10.839 11.6074C10.9552 11.6036 11.0676 11.565 11.1615 11.4965C11.2555 11.428 11.3267 11.3328 11.366 11.2234C11.4335 11.0675 11.442 10.8923 11.39 10.7305C11.3379 10.5688 11.2288 10.4315 11.083 10.3443Z" fill="white"/>
<path d="M11.8651 8.04225C9.09409 6.60233 5.2081 7.2423 5.0431 7.2683C4.88009 7.30684 4.73804 7.40636 4.64616 7.54641C4.55427 7.68646 4.51954 7.85638 4.5491 8.02125C4.5545 8.10244 4.57637 8.18167 4.61336 8.25414C4.65035 8.32661 4.70169 8.3908 4.76427 8.44281C4.82685 8.49481 4.89935 8.53354 4.97737 8.55665C5.05539 8.57976 5.13729 8.58676 5.2181 8.57722C5.2551 8.57122 8.91809 7.97225 11.3701 9.24418C11.4463 9.28415 11.531 9.30508 11.6171 9.30518C11.7344 9.30187 11.848 9.26354 11.9434 9.19511C12.0387 9.12667 12.1114 9.03129 12.1521 8.9212C12.2193 8.76485 12.2272 8.58937 12.1744 8.42759C12.1216 8.26582 12.0116 8.12883 11.8651 8.04225Z" fill="white"/>
<path d="M12.594 5.63995C9.33097 4.04895 4.74698 4.75495 4.55398 4.78595C4.38525 4.81787 4.23569 4.9145 4.13722 5.05519C4.03876 5.19588 3.9992 5.36949 4.02698 5.53895C4.03647 5.62271 4.0626 5.70373 4.10382 5.77725C4.14504 5.85078 4.20054 5.91533 4.26705 5.96712C4.33355 6.01891 4.40973 6.0569 4.49112 6.07885C4.5725 6.1008 4.65745 6.10627 4.74098 6.09495C4.78498 6.08795 9.14897 5.41895 12.067 6.84195C12.1489 6.882 12.2388 6.90286 12.33 6.90295C12.4521 6.90152 12.5711 6.8644 12.6724 6.79617C12.7737 6.72794 12.8528 6.63158 12.9 6.51895C12.9708 6.36106 12.9785 6.18207 12.9216 6.01865C12.8647 5.85523 12.7475 5.71975 12.594 5.63995Z" fill="white"/>
<path d="M8.40108 0.00183105C6.81884 0.00183105 5.27213 0.471026 3.95654 1.35008C2.64096 2.22914 1.61558 3.47858 1.01009 4.9404C0.404589 6.40222 0.246164 8.01076 0.554843 9.56262C0.863523 11.1145 1.62545 12.54 2.74426 13.6588C3.86307 14.7776 5.28853 15.5395 6.84037 15.8482C8.3922 16.1569 10.0007 15.9985 11.4625 15.393C12.9243 14.7875 14.1738 13.7621 15.0528 12.4465C15.9318 11.1309 16.401 9.58415 16.401 8.00189C16.3986 5.88087 15.555 3.84741 14.0553 2.34763C12.5555 0.847839 10.5221 0.00421318 8.40108 0.00183105V0.00183105ZM8.40108 14.7189C7.07283 14.7189 5.77441 14.3251 4.67 13.5872C3.56558 12.8492 2.70478 11.8004 2.19644 10.5732C1.68809 9.3461 1.55504 7.99578 1.81409 6.69302C2.07315 5.39026 2.71268 4.19358 3.65182 3.25428C4.59097 2.31498 5.78754 1.67526 7.09025 1.41601C8.39295 1.15676 9.74327 1.28961 10.9705 1.79778C12.1977 2.30595 13.2466 3.16661 13.9847 4.27093C14.7228 5.37524 15.1168 6.67362 15.117 8.00189C15.1155 9.7827 14.4074 11.4901 13.1483 12.7495C11.8892 14.0088 10.1819 14.7171 8.40108 14.7189Z" fill="white"/>
</svg>
