<svg width="17" height="17" viewBox="0 0 17 17" fill="none" xmlns="http://www.w3.org/2000/svg">
<path d="M16.431 4.70187C16.4179 4.03901 16.2894 3.38351 16.051 2.76485C15.8422 2.2272 15.5167 1.74255 15.098 1.34584C14.6826 0.937447 14.1844 0.623022 13.637 0.423834C12.9954 0.190419 12.3196 0.0647223 11.637 0.0518314C10.756 0.0108311 10.476 0.00183105 8.24 0.00183105C6.004 0.00183105 5.723 0.0108311 4.84 0.0488314C4.15736 0.061465 3.48153 0.18717 2.84 0.420834C2.29185 0.619911 1.79339 0.935499 1.379 1.34584C0.964688 1.74323 0.642467 2.22657 0.435 2.76185C0.195235 3.38129 0.0652898 4.03779 0.051 4.70187C0.01 5.55887 0 5.83088 0 8.00189C0 10.1729 0.01 10.4459 0.048 11.3019C0.0619834 11.966 0.191939 12.6226 0.432 13.2419C0.641913 13.779 0.967247 14.2634 1.385 14.6609C1.7995 15.069 2.29668 15.3834 2.843 15.583C3.4846 15.8163 4.16039 15.942 4.843 15.955C5.722 15.993 6.002 16.002 8.243 16.002C10.484 16.002 10.76 15.993 11.643 15.955C12.3256 15.9424 13.0015 15.8167 13.643 15.583C14.1833 15.3806 14.6756 15.068 15.0885 14.6649C15.5013 14.2619 15.8257 13.7773 16.041 13.2419C16.2805 12.6221 16.4101 11.9653 16.424 11.3009C16.463 10.4479 16.472 10.1759 16.472 8.00089C16.472 5.82588 16.469 5.55887 16.431 4.70187ZM14.951 11.2389C14.9456 11.7468 14.8498 12.2497 14.668 12.7239C14.5272 13.0719 14.3154 13.3868 14.0461 13.6483C13.7768 13.9099 13.456 14.1124 13.104 14.2429C12.6134 14.4197 12.0965 14.5127 11.575 14.5179C10.706 14.5559 10.445 14.5649 8.247 14.5649C6.049 14.5649 5.785 14.5559 4.919 14.5179C4.39748 14.513 3.88054 14.4201 3.39 14.2429C3.034 14.1157 2.71083 13.9107 2.444 13.6429C2.1725 13.3867 1.96228 13.0726 1.829 12.7239C1.64753 12.2496 1.55171 11.7468 1.546 11.2389C1.507 10.3949 1.498 10.1389 1.498 8.00689C1.498 5.87488 1.508 5.61587 1.546 4.77487C1.55133 4.26698 1.64716 3.76411 1.829 3.28986C1.96142 2.93999 2.17293 2.62546 2.447 2.37085C2.7143 2.10362 3.03733 1.89873 3.393 1.77084C3.88273 1.59661 4.39821 1.50568 4.918 1.50184C5.787 1.46484 6.048 1.45484 8.246 1.45484C10.444 1.45484 10.708 1.46384 11.574 1.50184C12.0955 1.5068 12.6124 1.59977 13.103 1.77684C13.459 1.90401 13.7822 2.10899 14.049 2.37685C14.3205 2.63302 14.5307 2.94715 14.664 3.29586C14.8464 3.76903 14.9436 4.27079 14.951 4.77787C14.99 5.62187 14.999 5.87788 14.999 8.00989C14.999 10.1419 14.985 10.3949 14.951 11.2389Z" fill="white"/>
<path d="M8.23882 3.78167C7.41369 3.82682 6.61988 4.11278 5.95551 4.60421C5.29114 5.09564 4.78535 5.77099 4.50065 6.54678C4.21596 7.32257 4.16485 8.16478 4.35363 8.9693C4.54241 9.77382 4.96282 10.5054 5.56288 11.0736C6.16294 11.6417 6.91634 12.0216 7.72996 12.1662C8.54357 12.3108 9.38172 12.2138 10.1408 11.8872C10.8999 11.5606 11.5466 11.0187 12.0011 10.3285C12.4555 9.63832 12.6978 8.83009 12.6978 8.00371C12.6654 6.85287 12.1776 5.76193 11.3416 4.97036C10.5056 4.17878 9.38971 3.75128 8.23882 3.78167ZM8.23882 10.7417C7.70351 10.7124 7.18851 10.5269 6.7575 10.208C6.3265 9.88919 5.99838 9.45102 5.8137 8.94771C5.62902 8.44439 5.59589 7.89799 5.71839 7.37605C5.84089 6.85411 6.11366 6.3795 6.50297 6.01091C6.89228 5.64231 7.38108 5.39589 7.90893 5.30209C8.43678 5.2083 8.98055 5.27125 9.47301 5.48316C9.96548 5.69506 10.385 6.04664 10.6799 6.49443C10.9747 6.94222 11.1318 7.46658 11.1318 8.00271C11.1109 8.74939 10.7945 9.45725 10.252 9.97081C9.70961 10.4844 8.98553 10.7617 8.23882 10.7417Z" fill="white"/>
<path d="M13.6049 3.71515C13.6049 3.89947 13.5503 4.07965 13.4479 4.23291C13.3455 4.38617 13.1999 4.50562 13.0296 4.57616C12.8593 4.64669 12.6719 4.66515 12.4911 4.62919C12.3104 4.59323 12.1443 4.50447 12.0139 4.37414C11.8836 4.2438 11.7948 4.07775 11.7589 3.89697C11.7229 3.71619 11.7414 3.5288 11.8119 3.35851C11.8825 3.18822 12.0019 3.04267 12.1552 2.94027C12.3084 2.83786 12.4886 2.7832 12.673 2.7832C12.9202 2.7832 13.1572 2.88139 13.332 3.05617C13.5068 3.23094 13.6049 3.46798 13.6049 3.71515Z" fill="white"/>
</svg>
