<svg width="19" height="15" viewBox="0 0 19 15" fill="none" xmlns="http://www.w3.org/2000/svg">
<path d="M18.0611 2.26328C17.4118 2.54655 16.7251 2.73481 16.0221 2.82228C16.763 2.38283 17.317 1.68688 17.5791 0.866293C16.8854 1.2775 16.1265 1.567 15.3351 1.72229C14.85 1.20401 14.2202 0.84366 13.5276 0.688072C12.8349 0.532484 12.1115 0.588859 11.4513 0.849863C10.7912 1.11087 10.2248 1.56443 9.82578 2.1516C9.4268 2.73877 9.21369 3.43238 9.21414 4.14227C9.21134 4.41348 9.23885 4.68415 9.29614 4.94926C7.88862 4.88034 6.5115 4.51515 5.25478 3.87758C3.99806 3.24001 2.89004 2.3444 2.00315 1.24929C1.5477 2.02764 1.40657 2.9505 1.60859 3.82939C1.81061 4.70828 2.34054 5.47689 3.09014 5.97825C2.52955 5.96343 1.98076 5.81388 1.49015 5.54225V5.58126C1.49114 6.39834 1.77357 7.19014 2.28992 7.82341C2.80626 8.45667 3.52499 8.89274 4.32514 9.05823C4.02237 9.13821 3.7103 9.17755 3.39714 9.17522C3.1723 9.17937 2.94767 9.15925 2.72715 9.11523C2.95578 9.81745 3.39645 10.4315 3.9885 10.873C4.58055 11.3144 5.29487 11.5615 6.03314 11.5802C4.78094 12.5584 3.23714 13.089 1.64815 13.0872C1.36508 13.0893 1.08217 13.0733 0.801147 13.0392C2.41908 14.0818 4.30439 14.6333 6.22914 14.6272C7.55423 14.6368 8.86801 14.3829 10.0941 13.8803C11.3202 13.3777 12.4342 12.6364 13.3714 11.6996C14.3085 10.7627 15.0501 9.64896 15.5531 8.423C16.056 7.19704 16.3103 5.88335 16.3011 4.55826C16.3011 4.40227 16.2961 4.25127 16.2881 4.10127C16.986 3.60149 17.5868 2.97864 18.0611 2.26328Z" fill="white"/>
</svg>
