<svg id="Grupo_33" data-name="Grupo 33" xmlns="http://www.w3.org/2000/svg" width="110.5" height="110.5" viewBox="0 0 110.5 110.5">
  <path id="Trazado_357" data-name="Trazado 357" d="M99.49.5H12.01A11.4,11.4,0,0,0,.5,12.01V99.49A11.4,11.4,0,0,0,12.01,111H99.49A11.4,11.4,0,0,0,111,99.49V12.01A11.4,11.4,0,0,0,99.49.5ZM106.4,99.49A6.783,6.783,0,0,1,99.49,106.4H12.01A6.783,6.783,0,0,1,5.1,99.49V32.729H84.3a2.3,2.3,0,0,0,0-4.6H5.1V12.01A6.783,6.783,0,0,1,12.01,5.1H99.49A6.783,6.783,0,0,1,106.4,12.01Z" transform="translate(-0.5 -0.5)"/>
  <path id="Trazado_358" data-name="Trazado 358" d="M11.446,4.6A6.488,6.488,0,0,0,5,11.276a6.676,6.676,0,0,0,13.352,0A7.039,7.039,0,0,0,11.446,4.6Zm0,8.518A1.694,1.694,0,0,1,9.6,11.276,1.88,1.88,0,0,1,11.446,9.2a2.063,2.063,0,0,1,2.072,2.072A1.88,1.88,0,0,1,11.446,13.118Z" transform="translate(5.359 4.839)"/>
  <path id="Trazado_359" data-name="Trazado 359" d="M18.276,4.6a6.676,6.676,0,1,0,6.676,6.676A7,7,0,0,0,18.276,4.6Zm0,8.518a2.072,2.072,0,1,1,2.072-2.072A2.205,2.205,0,0,1,18.276,13.118Z" transform="translate(13.953 4.839)"/>
  <path id="Trazado_360" data-name="Trazado 360" d="M24.876,4.6a6.676,6.676,0,1,0,6.676,6.676A6.681,6.681,0,0,0,24.876,4.6Zm0,8.518a2.072,2.072,0,0,1,0-4.144,2.271,2.271,0,0,1,2.072,2.3A1.88,1.88,0,0,1,24.876,13.118Z" transform="translate(22.547 4.839)"/>
  <path id="Trazado_361" data-name="Trazado 361" d="M26.439,41.177a9.481,9.481,0,0,0,9.439-9.439,9.439,9.439,0,1,0-9.439,9.439Zm0-14.273A4.834,4.834,0,1,1,21.6,31.739,4.721,4.721,0,0,1,26.439,26.9Z" transform="translate(20.984 27.885)"/>
  <path id="Trazado_362" data-name="Trazado 362" d="M41.389,17.1h6.446a2.175,2.175,0,0,0,2.3-2.3,2.175,2.175,0,0,0-2.3-2.3H41.619a2.175,2.175,0,0,0-2.3,2.3A2.116,2.116,0,0,0,41.389,17.1Z" transform="translate(50.004 15.125)"/>
  <path id="Trazado_363" data-name="Trazado 363" d="M92.479,17.6H7.3A2.175,2.175,0,0,0,5,19.9V76.073a2.09,2.09,0,0,0,.691,1.611,2.09,2.09,0,0,0,1.611.691H92.479a2.175,2.175,0,0,0,2.3-2.3V19.9A2.175,2.175,0,0,0,92.479,17.6Zm-2.3,4.6v34.3l-19.8-19.8a2.225,2.225,0,0,0-3.223,0L41.833,62.03,26.179,46.376a2.225,2.225,0,0,0-3.223,0L9.6,59.958V22.2ZM9.6,73.771V66.4L24.8,51.21,38.841,65.253l-8.748,8.518Zm80.573,0H36.769l6.906-6.906h0L69,41.542,90.407,62.951v10.82Z" transform="translate(5.359 21.766)"/>
</svg>
