<svg width="17" height="17" viewBox="0 0 17 17" fill="none" xmlns="http://www.w3.org/2000/svg">
<path d="M16.0862 13.8694C15.8922 14.3299 15.5988 14.7417 15.2269 15.0754C14.855 15.4091 14.4139 15.6563 13.9351 15.7994C13.3033 15.9558 12.6527 16.0232 12.0021 15.9994H4.80213C4.15129 16.0231 3.50033 15.9558 2.86813 15.7994C2.38965 15.656 1.94877 15.4087 1.57708 15.0751C1.20539 14.7414 0.912067 14.3297 0.718122 13.8694C0.47457 13.1392 0.367451 12.3704 0.402119 11.6014V4.40159C0.367565 3.63262 0.474681 2.86385 0.718122 2.13362C0.912246 1.67356 1.20564 1.26209 1.57732 0.928629C1.94899 0.595162 2.38978 0.347921 2.86813 0.204643C3.50033 0.048221 4.15129 -0.0190769 4.80213 0.00466529H12.0021C12.6527 -0.0191278 13.3033 0.0481716 13.9351 0.204643C14.4137 0.347729 14.8547 0.594873 15.2266 0.928354C15.5985 1.26183 15.892 1.67342 16.0862 2.13362C16.3296 2.86385 16.4367 3.63262 16.4022 4.40159V11.6014C16.4368 12.3704 16.3297 13.1392 16.0862 13.8694ZM9.56214 9.19748C9.23533 8.9291 8.82553 8.78239 8.40264 8.78239C7.97975 8.78239 7.56995 8.9291 7.24314 9.19748C7.12013 9.32121 7.04501 9.48456 7.03113 9.65847C6.99844 10.0619 7.00681 10.4677 7.05613 10.8695C7.09813 11.3594 7.17713 12.0134 7.28113 12.6794C7.32267 12.988 7.38515 13.2933 7.46814 13.5934C7.55923 13.7617 7.69411 13.9023 7.85852 14.0003C8.02293 14.0982 8.21075 14.1499 8.40214 14.1499C8.59352 14.1499 8.78135 14.0982 8.94576 14.0003C9.11017 13.9023 9.24505 13.7617 9.33614 13.5934C9.41913 13.2933 9.48195 12.9879 9.52414 12.6794C9.62414 12.0144 9.70714 11.3604 9.74814 10.8695C9.79775 10.4677 9.80646 10.062 9.77414 9.65847C9.76029 9.48485 9.68515 9.32181 9.56214 9.19849V9.19748ZM7.09514 6.94155C7.09494 7.20072 7.17163 7.4541 7.3155 7.66968C7.45936 7.88526 7.66394 8.05334 7.90336 8.15261C8.14277 8.25189 8.40625 8.27789 8.66046 8.22738C8.91467 8.17687 9.14819 8.0521 9.33145 7.86884C9.51472 7.68557 9.63951 7.45206 9.69002 7.19786C9.74054 6.94366 9.7145 6.68017 9.61523 6.44076C9.51595 6.20135 9.34789 5.99678 9.13231 5.85291C8.91673 5.70905 8.66332 5.63235 8.40414 5.63255C8.23215 5.63255 8.06186 5.66643 7.90298 5.73228C7.74409 5.79812 7.59974 5.89465 7.47818 6.0163C7.35661 6.13796 7.26022 6.28238 7.19449 6.44131C7.12877 6.60024 7.095 6.77054 7.09514 6.94252V6.94155ZM8.38814 1.77361C7.06087 1.77737 5.77766 2.25017 4.76526 3.10846C3.75285 3.96674 3.07643 5.15528 2.85553 6.46402C2.63463 7.77275 2.88347 9.11743 3.55808 10.2605C4.23268 11.4035 5.28963 12.2712 6.54213 12.7104C6.5544 12.7149 6.56762 12.7162 6.58051 12.714C6.59339 12.7118 6.60549 12.7063 6.6156 12.698C6.6257 12.6897 6.63346 12.679 6.63812 12.6667C6.64277 12.6545 6.64416 12.6413 6.64213 12.6284C6.61313 12.4364 6.58613 12.2424 6.56013 12.0524C6.55614 12.0195 6.54362 11.9881 6.5238 11.9614C6.50398 11.9348 6.47756 11.9138 6.44713 11.9004C5.41292 11.4505 4.56527 10.6581 4.04682 9.65652C3.52837 8.65494 3.37077 7.50534 3.60054 6.40118C3.83032 5.29703 4.43344 4.30573 5.30842 3.59411C6.18339 2.88248 7.27681 2.49397 8.40464 2.49397C9.53247 2.49397 10.6259 2.88248 11.5009 3.59411C12.3758 4.30573 12.979 5.29703 13.2087 6.40118C13.4385 7.50534 13.2809 8.65494 12.7625 9.65652C12.244 10.6581 11.3963 11.4505 10.3621 11.9004C10.3317 11.914 10.3053 11.9352 10.2855 11.9621C10.2657 11.9889 10.2532 12.0204 10.2491 12.0534C10.2241 12.2434 10.1971 12.4364 10.1671 12.6284C10.1651 12.6413 10.1665 12.6545 10.1712 12.6667C10.1758 12.679 10.1836 12.6897 10.1937 12.698C10.2038 12.7063 10.2159 12.7118 10.2288 12.714C10.2416 12.7162 10.2549 12.7149 10.2671 12.7104C11.5222 12.2703 12.5809 11.3999 13.2553 10.2536C13.9296 9.10721 14.1761 7.75905 13.9511 6.44824C13.726 5.13743 13.0438 3.94872 12.0257 3.09299C11.0075 2.23726 9.71915 1.76982 8.38914 1.77361H8.38814ZM8.28814 4.35557C8.90925 4.33065 9.52312 4.49626 10.0475 4.83014C10.5718 5.16401 10.9815 5.65018 11.2216 6.22351C11.4618 6.79684 11.5209 7.4299 11.3911 8.03778C11.2612 8.64566 10.9486 9.19931 10.4951 9.62448C10.4701 9.6479 10.4506 9.6765 10.4378 9.70828C10.425 9.74006 10.4193 9.77426 10.4211 9.80847C10.4318 10.0227 10.4295 10.2375 10.4141 10.4515C10.4135 10.4652 10.4168 10.4789 10.4234 10.491C10.4301 10.5031 10.44 10.5131 10.452 10.5199C10.464 10.5267 10.4776 10.5301 10.4914 10.5297C10.5052 10.5292 10.5186 10.525 10.5301 10.5175C11.1961 10.0639 11.6992 9.40892 11.9656 8.64851C12.2321 7.88811 12.2478 7.06235 12.0105 6.29236C11.7732 5.52237 11.2954 4.84867 10.6472 4.37012C9.99892 3.89158 9.21438 3.63338 8.40864 3.63338C7.60289 3.63338 6.81836 3.89158 6.17012 4.37012C5.52189 4.84867 5.04408 5.52237 4.80678 6.29236C4.56949 7.06235 4.58521 7.88811 4.85163 8.64851C5.11805 9.40892 5.62116 10.0639 6.28713 10.5175C6.29859 10.5251 6.31196 10.5294 6.32574 10.5299C6.33952 10.5304 6.35315 10.527 6.36511 10.5201C6.37706 10.5133 6.38686 10.5032 6.3934 10.4911C6.39995 10.4789 6.40297 10.4652 6.40213 10.4515C6.3871 10.2375 6.3851 10.0227 6.39614 9.80847C6.39809 9.77439 6.39246 9.74032 6.37966 9.70868C6.36687 9.67703 6.34722 9.64863 6.32213 9.62549C5.8839 9.21428 5.57696 8.68272 5.43987 8.09762C5.30277 7.51252 5.34165 6.89999 5.55161 6.33691C5.76156 5.77384 6.13324 5.28534 6.61994 4.93283C7.10664 4.58031 7.68666 4.37948 8.28714 4.35557H8.28814Z" fill="white"/>
</svg>
