<svg width="94" height="45" viewBox="0 0 94 45" fill="none" xmlns="http://www.w3.org/2000/svg">
<path d="M27.296 15.88C30.6027 15.88 33.1307 16.7973 34.88 18.632C36.6507 20.4667 37.536 23.0693 37.536 26.44C37.536 29.8107 36.6507 32.4133 34.88 34.248C33.1307 36.0827 30.6027 37 27.296 37H18.336V15.88H27.296ZM26.752 32.84C28.544 32.84 29.8453 32.3067 30.656 31.24C31.488 30.152 31.904 28.552 31.904 26.44C31.904 24.328 31.488 22.7387 30.656 21.672C29.8453 20.584 28.544 20.04 26.752 20.04H23.84V32.84H26.752ZM50.2648 15.88C53.5714 15.88 56.0994 16.7973 57.8488 18.632C59.6194 20.4667 60.5048 23.0693 60.5048 26.44C60.5048 29.8107 59.6194 32.4133 57.8488 34.248C56.0994 36.0827 53.5714 37 50.2648 37H41.3048V15.88H50.2648ZM49.7208 32.84C51.5128 32.84 52.8141 32.3067 53.6248 31.24C54.4568 30.152 54.8728 28.552 54.8728 26.44C54.8728 24.328 54.4568 22.7387 53.6248 21.672C52.8141 20.584 51.5128 20.04 49.7208 20.04H46.8088V32.84H49.7208ZM67.8688 37L61.7888 15.88H67.6448L71.2288 32.552L75.0048 15.88H79.9968L83.8688 32.52L87.3888 15.88H93.0528L86.9408 37H80.9568L78.4608 26.76L77.5008 21.608H77.4368L76.5088 26.76L74.0448 37H67.8688Z" fill="white"/>
<path fill-rule="evenodd" clip-rule="evenodd" d="M11.2593 11.2593V38L0 26.7407V0H1.14441e-05H26.7408L38 11.2593L11.2593 11.2593Z" fill="white"/>
</svg>
